G75*
G70*
%OFA0B0*%
%FSLAX24Y24*%
%IPPOS*%
%LPD*%
%AMOC8*
5,1,8,0,0,1.08239X$1,22.5*
%
%ADD10C,0.0050*%
D10*
X000600Y001000D02*
X000600Y004400D01*
X000598Y004417D01*
X000594Y004434D01*
X000587Y004450D01*
X000577Y004464D01*
X000564Y004477D01*
X000550Y004487D01*
X000534Y004494D01*
X000517Y004498D01*
X000500Y004500D01*
X000500Y018000D01*
X009500Y018000D01*
X009500Y017250D01*
X009502Y017174D01*
X009508Y017098D01*
X009517Y017023D01*
X009531Y016948D01*
X009548Y016874D01*
X009569Y016801D01*
X009593Y016729D01*
X009622Y016658D01*
X009653Y016589D01*
X009688Y016522D01*
X009727Y016457D01*
X009769Y016393D01*
X009814Y016332D01*
X009862Y016273D01*
X009913Y016217D01*
X009967Y016163D01*
X010023Y016112D01*
X010082Y016064D01*
X010143Y016019D01*
X010207Y015977D01*
X010272Y015938D01*
X010339Y015903D01*
X010408Y015872D01*
X010479Y015843D01*
X010551Y015819D01*
X010624Y015798D01*
X010698Y015781D01*
X010773Y015767D01*
X010848Y015758D01*
X010924Y015752D01*
X011000Y015750D01*
X011076Y015752D01*
X011152Y015758D01*
X011227Y015767D01*
X011302Y015781D01*
X011376Y015798D01*
X011449Y015819D01*
X011521Y015843D01*
X011592Y015872D01*
X011661Y015903D01*
X011728Y015938D01*
X011793Y015977D01*
X011857Y016019D01*
X011918Y016064D01*
X011977Y016112D01*
X012033Y016163D01*
X012087Y016217D01*
X012138Y016273D01*
X012186Y016332D01*
X012231Y016393D01*
X012273Y016457D01*
X012312Y016522D01*
X012347Y016589D01*
X012378Y016658D01*
X012407Y016729D01*
X012431Y016801D01*
X012452Y016874D01*
X012469Y016948D01*
X012483Y017023D01*
X012492Y017098D01*
X012498Y017174D01*
X012500Y017250D01*
X012500Y018000D01*
X021500Y018000D01*
X021500Y004500D01*
X021483Y004498D01*
X021466Y004494D01*
X021450Y004487D01*
X021436Y004477D01*
X021423Y004464D01*
X021413Y004450D01*
X021406Y004434D01*
X021402Y004417D01*
X021400Y004400D01*
X021400Y001000D01*
X021398Y000956D01*
X021392Y000913D01*
X021383Y000871D01*
X021370Y000829D01*
X021353Y000789D01*
X021333Y000750D01*
X021310Y000713D01*
X021283Y000679D01*
X021254Y000646D01*
X021221Y000617D01*
X021187Y000590D01*
X021150Y000567D01*
X021111Y000547D01*
X021071Y000530D01*
X021029Y000517D01*
X020987Y000508D01*
X020944Y000502D01*
X020900Y000500D01*
X001100Y000500D01*
X001056Y000502D01*
X001013Y000508D01*
X000971Y000517D01*
X000929Y000530D01*
X000889Y000547D01*
X000850Y000567D01*
X000813Y000590D01*
X000779Y000617D01*
X000746Y000646D01*
X000717Y000679D01*
X000690Y000713D01*
X000667Y000750D01*
X000647Y000789D01*
X000630Y000829D01*
X000617Y000871D01*
X000608Y000913D01*
X000602Y000956D01*
X000600Y001000D01*
M02*
