G75*
G70*
%OFA0B0*%
%FSLAX24Y24*%
%IPPOS*%
%LPD*%
%AMOC8*
5,1,8,0,0,1.08239X$1,22.5*
%
%ADD10C,0.0040*%
%ADD11C,0.0060*%
%ADD12C,0.0050*%
%ADD13C,0.0070*%
%ADD14C,0.0120*%
D10*
X001290Y004520D02*
X001597Y004520D01*
X001443Y004520D02*
X001443Y004980D01*
X001290Y004827D01*
X012770Y015607D02*
X012857Y015520D01*
X013030Y015520D01*
X013117Y015607D01*
X013117Y016040D01*
X013286Y015954D02*
X013372Y016040D01*
X013546Y016040D01*
X013633Y015954D01*
X013633Y015867D01*
X013286Y015520D01*
X013633Y015520D01*
X013801Y015520D02*
X013801Y015607D01*
X013888Y015607D01*
X013888Y015520D01*
X013801Y015520D01*
X013801Y015780D02*
X013801Y015867D01*
X013888Y015867D01*
X013888Y015780D01*
X013801Y015780D01*
X013801Y016360D02*
X013801Y016447D01*
X013888Y016447D01*
X013888Y016360D01*
X013801Y016360D01*
X013633Y016360D02*
X013286Y016360D01*
X013459Y016360D02*
X013459Y016880D01*
X013286Y016707D01*
X013117Y016880D02*
X013117Y016447D01*
X013030Y016360D01*
X012857Y016360D01*
X012770Y016447D01*
X012770Y016880D01*
X013801Y016707D02*
X013801Y016620D01*
X013888Y016620D01*
X013888Y016707D01*
X013801Y016707D01*
X014575Y016794D02*
X014661Y016880D01*
X014835Y016880D01*
X014922Y016794D01*
X014922Y016707D01*
X014575Y016360D01*
X014922Y016360D01*
X015090Y016360D02*
X015090Y016447D01*
X015437Y016794D01*
X015437Y016880D01*
X015090Y016880D01*
X015606Y016794D02*
X015693Y016880D01*
X015866Y016880D01*
X015953Y016794D01*
X015953Y016707D01*
X015866Y016620D01*
X015953Y016533D01*
X015953Y016447D01*
X015866Y016360D01*
X015693Y016360D01*
X015606Y016447D01*
X015779Y016620D02*
X015866Y016620D01*
X016122Y016794D02*
X016208Y016880D01*
X016382Y016880D01*
X016469Y016794D01*
X016469Y016707D01*
X016122Y016360D01*
X016469Y016360D01*
X016382Y016040D02*
X016122Y015780D01*
X016469Y015780D01*
X016382Y015520D02*
X016382Y016040D01*
X015953Y016040D02*
X015779Y015954D01*
X015606Y015780D01*
X015866Y015780D01*
X015953Y015693D01*
X015953Y015607D01*
X015866Y015520D01*
X015693Y015520D01*
X015606Y015607D01*
X015606Y015780D01*
X015437Y015954D02*
X015090Y015607D01*
X015090Y015520D01*
X014922Y015520D02*
X014575Y015520D01*
X014922Y015867D01*
X014922Y015954D01*
X014835Y016040D01*
X014661Y016040D01*
X014575Y015954D01*
X015090Y016040D02*
X015437Y016040D01*
X015437Y015954D01*
X017153Y015780D02*
X017153Y015607D01*
X017240Y015520D01*
X017413Y015520D01*
X017500Y015607D01*
X017500Y015780D01*
X017413Y015867D01*
X017240Y015867D01*
X017153Y015780D01*
X017669Y015693D02*
X017842Y015867D01*
X017929Y015867D01*
X017669Y015867D02*
X017669Y015520D01*
X018614Y015520D02*
X018961Y015867D01*
X018961Y015954D01*
X018874Y016040D01*
X018701Y016040D01*
X018614Y015954D01*
X019130Y016040D02*
X019477Y016040D01*
X019477Y015954D01*
X019130Y015607D01*
X019130Y015520D01*
X018961Y015520D02*
X018614Y015520D01*
X019645Y015520D02*
X019992Y015520D01*
X020161Y015520D02*
X020508Y015867D01*
X020508Y015954D01*
X020421Y016040D01*
X020248Y016040D01*
X020161Y015954D01*
X019819Y016040D02*
X019819Y015520D01*
X020161Y015520D02*
X020508Y015520D01*
X020676Y015607D02*
X020676Y015693D01*
X020763Y015780D01*
X020937Y015780D01*
X021023Y015693D01*
X021023Y015607D01*
X020937Y015520D01*
X020763Y015520D01*
X020676Y015607D01*
X020763Y015780D02*
X020676Y015867D01*
X020676Y015954D01*
X020763Y016040D01*
X020937Y016040D01*
X021023Y015954D01*
X021023Y015867D01*
X020937Y015780D01*
X019819Y016040D02*
X019645Y015867D01*
X012770Y016040D02*
X012770Y015607D01*
X020136Y004980D02*
X020060Y004904D01*
X020136Y004980D02*
X020290Y004980D01*
X020367Y004904D01*
X020367Y004827D01*
X020290Y004750D01*
X020367Y004673D01*
X020367Y004597D01*
X020290Y004520D01*
X020136Y004520D01*
X020060Y004597D01*
X020213Y004750D02*
X020290Y004750D01*
X020520Y004827D02*
X020520Y004904D01*
X020597Y004980D01*
X020750Y004980D01*
X020827Y004904D01*
X020827Y004597D01*
X020750Y004520D01*
X020597Y004520D01*
X020520Y004597D01*
X020597Y004750D02*
X020520Y004827D01*
X020597Y004750D02*
X020827Y004750D01*
D11*
X018000Y007500D02*
X018000Y012500D01*
X004000Y012500D01*
X004000Y010400D01*
X003720Y010452D02*
X003720Y010025D01*
X003293Y010452D01*
X003186Y010452D01*
X003079Y010345D01*
X003079Y010131D01*
X003186Y010025D01*
X003079Y009807D02*
X003613Y009807D01*
X003720Y009700D01*
X003720Y009487D01*
X003613Y009380D01*
X003079Y009380D01*
X004000Y009600D02*
X004000Y007500D01*
X018000Y007500D01*
X018000Y008500D02*
X018000Y013500D01*
X006000Y013500D01*
X006000Y011400D01*
X006039Y011398D01*
X006078Y011392D01*
X006116Y011383D01*
X006153Y011370D01*
X006189Y011353D01*
X006222Y011333D01*
X006254Y011309D01*
X006283Y011283D01*
X006309Y011254D01*
X006333Y011222D01*
X006353Y011189D01*
X006370Y011153D01*
X006383Y011116D01*
X006392Y011078D01*
X006398Y011039D01*
X006400Y011000D01*
X006398Y010961D01*
X006392Y010922D01*
X006383Y010884D01*
X006370Y010847D01*
X006353Y010811D01*
X006333Y010778D01*
X006309Y010746D01*
X006283Y010717D01*
X006254Y010691D01*
X006222Y010667D01*
X006189Y010647D01*
X006153Y010630D01*
X006116Y010617D01*
X006078Y010608D01*
X006039Y010602D01*
X006000Y010600D01*
X006000Y008500D01*
X018000Y008500D01*
X008950Y015100D02*
X008950Y015900D01*
X008948Y015917D01*
X008944Y015934D01*
X008937Y015950D01*
X008927Y015964D01*
X008914Y015977D01*
X008900Y015987D01*
X008884Y015994D01*
X008867Y015998D01*
X008850Y016000D01*
X006150Y016000D01*
X006133Y015998D01*
X006116Y015994D01*
X006100Y015987D01*
X006086Y015977D01*
X006073Y015964D01*
X006063Y015950D01*
X006056Y015934D01*
X006052Y015917D01*
X006050Y015900D01*
X006050Y015100D01*
X006052Y015083D01*
X006056Y015066D01*
X006063Y015050D01*
X006073Y015036D01*
X006086Y015023D01*
X006100Y015013D01*
X006116Y015006D01*
X006133Y015002D01*
X006150Y015000D01*
X008850Y015000D01*
X008867Y015002D01*
X008884Y015006D01*
X008900Y015013D01*
X008914Y015023D01*
X008927Y015036D01*
X008937Y015050D01*
X008944Y015066D01*
X008948Y015083D01*
X008950Y015100D01*
X008100Y015500D02*
X007630Y015500D01*
X007380Y015500D02*
X006900Y015500D01*
X006831Y016616D02*
X006831Y017257D01*
X007151Y017257D01*
X007258Y017150D01*
X007258Y016937D01*
X007151Y016830D01*
X006831Y016830D01*
X006613Y016830D02*
X006613Y017471D01*
X006400Y017257D01*
X006186Y017471D01*
X006186Y016830D01*
X005969Y016937D02*
X005969Y017364D01*
X005862Y017471D01*
X005649Y017471D01*
X005542Y017364D01*
X005542Y016937D01*
X005649Y016830D01*
X005862Y016830D01*
X005969Y016937D01*
X005324Y016830D02*
X005111Y017044D01*
X005218Y017044D02*
X005324Y017150D01*
X005324Y017364D01*
X005218Y017471D01*
X004897Y017471D01*
X004897Y016830D01*
X004897Y017044D02*
X005218Y017044D01*
X004680Y017150D02*
X004573Y017044D01*
X004253Y017044D01*
X004253Y016830D02*
X004253Y017471D01*
X004573Y017471D01*
X004680Y017364D01*
X004680Y017150D01*
X004035Y016830D02*
X003608Y016830D01*
X003608Y017471D01*
X004035Y017471D01*
X003822Y017150D02*
X003608Y017150D01*
X003391Y017150D02*
X003391Y016937D01*
X003284Y016830D01*
X003070Y016830D01*
X002964Y016937D01*
X002964Y017150D01*
X003070Y017257D01*
X003284Y017257D01*
X003391Y017150D01*
X002746Y016937D02*
X002639Y016830D01*
X002426Y016830D01*
X002319Y016937D01*
X002319Y017364D01*
X002426Y017471D01*
X002639Y017471D01*
X002746Y017364D01*
X002102Y017150D02*
X002102Y016937D01*
X001995Y016830D01*
X001781Y016830D01*
X001675Y016937D01*
X001675Y017150D01*
X001781Y017257D01*
X001995Y017257D01*
X002102Y017150D01*
X001457Y016937D02*
X001350Y016830D01*
X001137Y016830D01*
X001030Y016937D01*
X001030Y017364D01*
X001137Y017471D01*
X001350Y017471D01*
X001457Y017364D01*
X001030Y016421D02*
X001030Y015780D01*
X001350Y015780D01*
X001457Y015887D01*
X001457Y016100D01*
X001350Y016207D01*
X001030Y016207D01*
X001675Y016207D02*
X001675Y015887D01*
X001781Y015780D01*
X002102Y015780D01*
X002102Y015673D02*
X001995Y015566D01*
X001888Y015566D01*
X002102Y015673D02*
X002102Y016207D01*
X002964Y016421D02*
X002964Y015780D01*
X003391Y015780D02*
X003391Y016421D01*
X003608Y016421D02*
X004035Y016421D01*
X003822Y016100D02*
X003608Y016100D01*
X003608Y015780D02*
X003608Y016421D01*
X002964Y016421D02*
X003391Y015780D01*
X004253Y015887D02*
X004360Y015780D01*
X004573Y015780D01*
X004680Y015887D01*
X004680Y015994D01*
X004573Y016100D01*
X004253Y016100D01*
X004253Y015887D01*
X004253Y016100D02*
X004466Y016314D01*
X004680Y016421D01*
X004897Y016421D02*
X005324Y015780D01*
X004897Y015780D02*
X005324Y016421D01*
X007475Y016937D02*
X007582Y017044D01*
X007903Y017044D01*
X007903Y017150D02*
X007903Y016830D01*
X007582Y016830D01*
X007475Y016937D01*
X007582Y017257D02*
X007796Y017257D01*
X007903Y017150D01*
X008120Y017044D02*
X008440Y017257D01*
X008120Y017044D02*
X008440Y016830D01*
X008120Y016830D02*
X008120Y017471D01*
X003283Y013521D02*
X003283Y012880D01*
X003496Y012880D02*
X003069Y012880D01*
X002852Y013200D02*
X002745Y013094D01*
X002425Y013094D01*
X002425Y012880D02*
X002425Y013521D01*
X002745Y013521D01*
X002852Y013414D01*
X002852Y013200D01*
X003069Y013307D02*
X003283Y013521D01*
X002207Y013521D02*
X001994Y013521D01*
X002100Y013521D02*
X002100Y012987D01*
X001994Y012880D01*
X001887Y012880D01*
X001780Y012987D01*
X004000Y010400D02*
X004039Y010398D01*
X004078Y010392D01*
X004116Y010383D01*
X004153Y010370D01*
X004189Y010353D01*
X004222Y010333D01*
X004254Y010309D01*
X004283Y010283D01*
X004309Y010254D01*
X004333Y010222D01*
X004353Y010189D01*
X004370Y010153D01*
X004383Y010116D01*
X004392Y010078D01*
X004398Y010039D01*
X004400Y010000D01*
X004398Y009961D01*
X004392Y009922D01*
X004383Y009884D01*
X004370Y009847D01*
X004353Y009811D01*
X004333Y009778D01*
X004309Y009746D01*
X004283Y009717D01*
X004254Y009691D01*
X004222Y009667D01*
X004189Y009647D01*
X004153Y009630D01*
X004116Y009617D01*
X004078Y009608D01*
X004039Y009602D01*
X004000Y009600D01*
X003138Y005371D02*
X003138Y004730D01*
X002925Y004730D02*
X003352Y004730D01*
X002925Y005157D02*
X003138Y005371D01*
X002707Y005264D02*
X002707Y005050D01*
X002600Y004944D01*
X002280Y004944D01*
X002280Y004730D02*
X002280Y005371D01*
X002600Y005371D01*
X002707Y005264D01*
D12*
X000600Y004400D02*
X000600Y001000D01*
X000602Y000956D01*
X000608Y000913D01*
X000617Y000871D01*
X000630Y000829D01*
X000647Y000789D01*
X000667Y000750D01*
X000690Y000713D01*
X000717Y000679D01*
X000746Y000646D01*
X000779Y000617D01*
X000813Y000590D01*
X000850Y000567D01*
X000889Y000547D01*
X000929Y000530D01*
X000971Y000517D01*
X001013Y000508D01*
X001056Y000502D01*
X001100Y000500D01*
X020900Y000500D01*
X020944Y000502D01*
X020987Y000508D01*
X021029Y000517D01*
X021071Y000530D01*
X021111Y000547D01*
X021150Y000567D01*
X021187Y000590D01*
X021221Y000617D01*
X021254Y000646D01*
X021283Y000679D01*
X021310Y000713D01*
X021333Y000750D01*
X021353Y000789D01*
X021370Y000829D01*
X021383Y000871D01*
X021392Y000913D01*
X021398Y000956D01*
X021400Y001000D01*
X021400Y004400D01*
X021402Y004417D01*
X021406Y004434D01*
X021413Y004450D01*
X021423Y004464D01*
X021436Y004477D01*
X021450Y004487D01*
X021466Y004494D01*
X021483Y004498D01*
X021500Y004500D01*
X021500Y018000D01*
X012500Y018000D01*
X012500Y017250D01*
X011000Y015750D02*
X010924Y015752D01*
X010848Y015758D01*
X010773Y015767D01*
X010698Y015781D01*
X010624Y015798D01*
X010551Y015819D01*
X010479Y015843D01*
X010408Y015872D01*
X010339Y015903D01*
X010272Y015938D01*
X010207Y015977D01*
X010143Y016019D01*
X010082Y016064D01*
X010023Y016112D01*
X009967Y016163D01*
X009913Y016217D01*
X009862Y016273D01*
X009814Y016332D01*
X009769Y016393D01*
X009727Y016457D01*
X009688Y016522D01*
X009653Y016589D01*
X009622Y016658D01*
X009593Y016729D01*
X009569Y016801D01*
X009548Y016874D01*
X009531Y016948D01*
X009517Y017023D01*
X009508Y017098D01*
X009502Y017174D01*
X009500Y017250D01*
X009500Y018000D01*
X000500Y018000D01*
X000500Y004500D01*
X000517Y004498D01*
X000534Y004494D01*
X000550Y004487D01*
X000564Y004477D01*
X000577Y004464D01*
X000587Y004450D01*
X000594Y004434D01*
X000598Y004417D01*
X000600Y004400D01*
X001500Y011500D02*
X003500Y011500D01*
X003500Y012500D01*
X001500Y012500D01*
X001500Y011500D01*
X011000Y015750D02*
X011076Y015752D01*
X011152Y015758D01*
X011227Y015767D01*
X011302Y015781D01*
X011376Y015798D01*
X011449Y015819D01*
X011521Y015843D01*
X011592Y015872D01*
X011661Y015903D01*
X011728Y015938D01*
X011793Y015977D01*
X011857Y016019D01*
X011918Y016064D01*
X011977Y016112D01*
X012033Y016163D01*
X012087Y016217D01*
X012138Y016273D01*
X012186Y016332D01*
X012231Y016393D01*
X012273Y016457D01*
X012312Y016522D01*
X012347Y016589D01*
X012378Y016658D01*
X012407Y016729D01*
X012431Y016801D01*
X012452Y016874D01*
X012469Y016948D01*
X012483Y017023D01*
X012492Y017098D01*
X012498Y017174D01*
X012500Y017250D01*
D13*
X010090Y015616D02*
X010090Y014985D01*
X009880Y014985D02*
X010300Y014985D01*
X009880Y015405D02*
X010090Y015616D01*
X009655Y015510D02*
X009550Y015616D01*
X009340Y015616D01*
X009235Y015510D01*
X009235Y015090D01*
X009340Y014985D01*
X009550Y014985D01*
X009655Y015090D01*
X005715Y011500D02*
X005715Y011080D01*
X005715Y011290D02*
X005084Y011290D01*
X005295Y011080D01*
X005084Y010855D02*
X005610Y010855D01*
X005715Y010750D01*
X005715Y010540D01*
X005610Y010435D01*
X005084Y010435D01*
D14*
X007380Y015250D02*
X007380Y015500D01*
X007380Y015750D01*
X007630Y015750D02*
X007630Y015500D01*
X007630Y015250D01*
M02*
