G75*
G70*
%OFA0B0*%
%FSLAX24Y24*%
%IPPOS*%
%LPD*%
%AMOC8*
5,1,8,0,0,1.08239X$1,22.5*
%
%ADD10C,0.0040*%
%ADD11C,0.0050*%
%ADD12C,0.0060*%
%ADD13C,0.0120*%
D10*
X001290Y004770D02*
X001597Y004770D01*
X001443Y004770D02*
X001443Y005230D01*
X001290Y005077D01*
X001230Y005470D02*
X001537Y005470D01*
X001384Y005470D02*
X001384Y005930D01*
X001230Y005777D01*
X001077Y005854D02*
X001077Y005700D01*
X001000Y005623D01*
X000770Y005623D01*
X000770Y005470D02*
X000770Y005930D01*
X001000Y005930D01*
X001077Y005854D01*
X002770Y006297D02*
X002847Y006220D01*
X002923Y006220D01*
X003000Y006297D01*
X003000Y006680D01*
X002923Y006680D02*
X003077Y006680D01*
X003230Y006680D02*
X003461Y006680D01*
X003537Y006604D01*
X003537Y006450D01*
X003461Y006373D01*
X003230Y006373D01*
X003230Y006220D02*
X003230Y006680D01*
X003691Y006527D02*
X003844Y006680D01*
X003844Y006220D01*
X003691Y006220D02*
X003998Y006220D01*
X004423Y005730D02*
X004577Y005577D01*
X004577Y005270D01*
X004730Y005347D02*
X004807Y005270D01*
X004961Y005270D01*
X005037Y005347D01*
X005037Y005730D01*
X005191Y005730D02*
X005498Y005730D01*
X005344Y005730D02*
X005344Y005270D01*
X005651Y005347D02*
X005651Y005654D01*
X005728Y005730D01*
X005881Y005730D01*
X005958Y005654D01*
X005958Y005347D01*
X005881Y005270D01*
X005728Y005270D01*
X005651Y005347D01*
X006112Y005347D02*
X006188Y005270D01*
X006342Y005270D01*
X006418Y005347D01*
X006418Y005423D01*
X006342Y005500D01*
X006188Y005500D01*
X006112Y005577D01*
X006112Y005654D01*
X006188Y005730D01*
X006342Y005730D01*
X006418Y005654D01*
X006572Y005730D02*
X006879Y005730D01*
X006725Y005730D02*
X006725Y005270D01*
X007032Y005270D02*
X007032Y005577D01*
X007186Y005730D01*
X007339Y005577D01*
X007339Y005270D01*
X007493Y005270D02*
X007493Y005730D01*
X007723Y005730D01*
X007800Y005654D01*
X007800Y005500D01*
X007723Y005423D01*
X007493Y005423D01*
X007646Y005423D02*
X007800Y005270D01*
X008107Y005270D02*
X008107Y005730D01*
X008260Y005730D02*
X007953Y005730D01*
X007339Y005500D02*
X007032Y005500D01*
X004730Y005347D02*
X004730Y005730D01*
X004577Y005500D02*
X004270Y005500D01*
X004270Y005577D02*
X004423Y005730D01*
X004270Y005577D02*
X004270Y005270D01*
X003903Y008420D02*
X003520Y008420D01*
X003520Y008727D02*
X003903Y008727D01*
X003980Y008650D01*
X003980Y008497D01*
X003903Y008420D01*
X003980Y008880D02*
X003673Y009187D01*
X003596Y009187D01*
X003520Y009111D01*
X003520Y008957D01*
X003596Y008880D01*
X003980Y008880D02*
X003980Y009187D01*
X002950Y012070D02*
X002797Y012070D01*
X002720Y012147D01*
X003027Y012454D01*
X003027Y012147D01*
X002950Y012070D01*
X002720Y012147D02*
X002720Y012454D01*
X002797Y012530D01*
X002950Y012530D01*
X003027Y012454D01*
X003027Y012820D02*
X002720Y012820D01*
X002873Y012820D02*
X002873Y013280D01*
X002720Y013127D01*
X002720Y013570D02*
X002720Y013877D01*
X002873Y014030D01*
X003027Y013877D01*
X003027Y013570D01*
X003180Y013570D02*
X003487Y013570D01*
X003334Y013570D02*
X003334Y014030D01*
X003180Y013877D01*
X003027Y013800D02*
X002720Y013800D01*
X003641Y013800D02*
X003794Y013877D01*
X003871Y013877D01*
X003948Y013800D01*
X003948Y013647D01*
X003871Y013570D01*
X003718Y013570D01*
X003641Y013647D01*
X003641Y013800D02*
X003641Y014030D01*
X003948Y014030D01*
X004408Y014030D02*
X004101Y013570D01*
X004562Y013723D02*
X004715Y013570D01*
X004868Y013723D01*
X004868Y014030D01*
X005022Y014030D02*
X005252Y014030D01*
X005329Y013954D01*
X005329Y013800D01*
X005252Y013723D01*
X005022Y013723D01*
X005022Y013570D02*
X005022Y014030D01*
X005482Y014030D02*
X005482Y013570D01*
X005482Y013723D02*
X005713Y013723D01*
X005789Y013800D01*
X005789Y013954D01*
X005713Y014030D01*
X005482Y014030D01*
X005943Y013877D02*
X005943Y013800D01*
X006019Y013800D01*
X006019Y013877D01*
X005943Y013877D01*
X005943Y013647D02*
X005943Y013570D01*
X006019Y013570D01*
X006019Y013647D01*
X005943Y013647D01*
X004562Y013723D02*
X004562Y014030D01*
X002977Y015397D02*
X002900Y015320D01*
X002747Y015320D01*
X002670Y015397D01*
X002977Y015704D01*
X002977Y015397D01*
X002977Y015704D02*
X002900Y015780D01*
X002747Y015780D01*
X002670Y015704D01*
X002670Y015397D01*
X002670Y016070D02*
X002977Y016070D01*
X002823Y016070D02*
X002823Y016530D01*
X002670Y016377D01*
X002670Y016820D02*
X002670Y017127D01*
X002823Y017280D01*
X002977Y017127D01*
X002977Y016820D01*
X003130Y016820D02*
X003437Y016820D01*
X003284Y016820D02*
X003284Y017280D01*
X003130Y017127D01*
X002977Y017050D02*
X002670Y017050D01*
X003591Y017050D02*
X003898Y017050D01*
X003821Y016820D02*
X003821Y017280D01*
X003591Y017050D01*
X004051Y016820D02*
X004358Y017280D01*
X004512Y017280D02*
X004742Y017280D01*
X004818Y017204D01*
X004818Y017050D01*
X004742Y016973D01*
X004512Y016973D01*
X004512Y016820D02*
X004512Y017280D01*
X004492Y017360D02*
X005873Y017360D01*
X005739Y017280D02*
X005739Y016820D01*
X005893Y016820D02*
X005893Y016897D01*
X005969Y016897D01*
X005969Y016820D01*
X005893Y016820D01*
X005893Y017050D02*
X005893Y017127D01*
X005969Y017127D01*
X005969Y017050D01*
X005893Y017050D01*
X005739Y017280D02*
X005586Y017127D01*
X005432Y017280D01*
X005432Y016820D01*
X005279Y016897D02*
X005279Y017050D01*
X005125Y017050D01*
X004972Y016897D02*
X004972Y017204D01*
X005049Y017280D01*
X005202Y017280D01*
X005279Y017204D01*
X005279Y016897D02*
X005202Y016820D01*
X005049Y016820D01*
X004972Y016897D01*
X001280Y016648D02*
X001280Y016341D01*
X000973Y016648D01*
X000896Y016648D01*
X000820Y016571D01*
X000820Y016418D01*
X000896Y016341D01*
X000896Y016187D02*
X001050Y016187D01*
X001127Y016111D01*
X001127Y015880D01*
X001280Y015880D02*
X000820Y015880D01*
X000820Y016111D01*
X000896Y016187D01*
X000820Y015727D02*
X000820Y015573D01*
X000820Y015650D02*
X001203Y015650D01*
X001280Y015573D01*
X001280Y015497D01*
X001203Y015420D01*
X001203Y013398D02*
X001280Y013321D01*
X001280Y013168D01*
X001203Y013091D01*
X001050Y013244D02*
X001050Y013321D01*
X001127Y013398D01*
X001203Y013398D01*
X001050Y013321D02*
X000973Y013398D01*
X000896Y013398D01*
X000820Y013321D01*
X000820Y013168D01*
X000896Y013091D01*
X000896Y012937D02*
X000820Y012861D01*
X000820Y012630D01*
X001280Y012630D01*
X001127Y012630D02*
X001127Y012861D01*
X001050Y012937D01*
X000896Y012937D01*
X000820Y012477D02*
X000820Y012323D01*
X000820Y012400D02*
X001203Y012400D01*
X001280Y012323D01*
X001280Y012247D01*
X001203Y012170D01*
X020060Y005154D02*
X020136Y005230D01*
X020290Y005230D01*
X020367Y005154D01*
X020367Y005077D01*
X020290Y005000D01*
X020367Y004923D01*
X020367Y004847D01*
X020290Y004770D01*
X020136Y004770D01*
X020060Y004847D01*
X020213Y005000D02*
X020290Y005000D01*
X020520Y005077D02*
X020597Y005000D01*
X020827Y005000D01*
X020827Y004847D02*
X020750Y004770D01*
X020597Y004770D01*
X020520Y004847D01*
X020520Y005077D02*
X020520Y005154D01*
X020597Y005230D01*
X020750Y005230D01*
X020827Y005154D01*
X020827Y004847D01*
D11*
X000600Y004400D02*
X000600Y001000D01*
X000602Y000956D01*
X000608Y000913D01*
X000617Y000871D01*
X000630Y000829D01*
X000647Y000789D01*
X000667Y000750D01*
X000690Y000713D01*
X000717Y000679D01*
X000746Y000646D01*
X000779Y000617D01*
X000813Y000590D01*
X000850Y000567D01*
X000889Y000547D01*
X000929Y000530D01*
X000971Y000517D01*
X001013Y000508D01*
X001056Y000502D01*
X001100Y000500D01*
X020900Y000500D01*
X020944Y000502D01*
X020987Y000508D01*
X021029Y000517D01*
X021071Y000530D01*
X021111Y000547D01*
X021150Y000567D01*
X021187Y000590D01*
X021221Y000617D01*
X021254Y000646D01*
X021283Y000679D01*
X021310Y000713D01*
X021333Y000750D01*
X021353Y000789D01*
X021370Y000829D01*
X021383Y000871D01*
X021392Y000913D01*
X021398Y000956D01*
X021400Y001000D01*
X021400Y004400D01*
X021402Y004417D01*
X021406Y004434D01*
X021413Y004450D01*
X021423Y004464D01*
X021436Y004477D01*
X021450Y004487D01*
X021466Y004494D01*
X021483Y004498D01*
X021500Y004500D01*
X021500Y018000D01*
X012500Y018000D01*
X012500Y017250D01*
X011000Y015750D02*
X010924Y015752D01*
X010848Y015758D01*
X010773Y015767D01*
X010698Y015781D01*
X010624Y015798D01*
X010551Y015819D01*
X010479Y015843D01*
X010408Y015872D01*
X010339Y015903D01*
X010272Y015938D01*
X010207Y015977D01*
X010143Y016019D01*
X010082Y016064D01*
X010023Y016112D01*
X009967Y016163D01*
X009913Y016217D01*
X009862Y016273D01*
X009814Y016332D01*
X009769Y016393D01*
X009727Y016457D01*
X009688Y016522D01*
X009653Y016589D01*
X009622Y016658D01*
X009593Y016729D01*
X009569Y016801D01*
X009548Y016874D01*
X009531Y016948D01*
X009517Y017023D01*
X009508Y017098D01*
X009502Y017174D01*
X009500Y017250D01*
X009500Y018000D01*
X000500Y018000D01*
X000500Y004500D01*
X000517Y004498D01*
X000534Y004494D01*
X000550Y004487D01*
X000564Y004477D01*
X000577Y004464D01*
X000587Y004450D01*
X000594Y004434D01*
X000598Y004417D01*
X000600Y004400D01*
X002000Y005000D02*
X004000Y005000D01*
X004000Y006000D01*
X002000Y006000D01*
X002000Y005000D01*
X005575Y009775D02*
X005950Y009775D01*
X006025Y009850D01*
X006025Y010000D01*
X005950Y010075D01*
X005575Y010075D01*
X005725Y010235D02*
X005575Y010386D01*
X006025Y010386D01*
X006025Y010536D02*
X006025Y010235D01*
X002500Y011250D02*
X001500Y011250D01*
X001500Y014250D01*
X002500Y014250D01*
X002500Y011250D01*
X002500Y014500D02*
X001500Y014500D01*
X001500Y017500D01*
X002500Y017500D01*
X002500Y014500D01*
X009475Y015050D02*
X009550Y014975D01*
X009700Y014975D01*
X009775Y015050D01*
X009935Y014975D02*
X010236Y014975D01*
X010086Y014975D02*
X010086Y015425D01*
X009935Y015275D01*
X009775Y015350D02*
X009700Y015425D01*
X009550Y015425D01*
X009475Y015350D01*
X009475Y015050D01*
X011000Y015750D02*
X011076Y015752D01*
X011152Y015758D01*
X011227Y015767D01*
X011302Y015781D01*
X011376Y015798D01*
X011449Y015819D01*
X011521Y015843D01*
X011592Y015872D01*
X011661Y015903D01*
X011728Y015938D01*
X011793Y015977D01*
X011857Y016019D01*
X011918Y016064D01*
X011977Y016112D01*
X012033Y016163D01*
X012087Y016217D01*
X012138Y016273D01*
X012186Y016332D01*
X012231Y016393D01*
X012273Y016457D01*
X012312Y016522D01*
X012347Y016589D01*
X012378Y016658D01*
X012407Y016729D01*
X012431Y016801D01*
X012452Y016874D01*
X012469Y016948D01*
X012483Y017023D01*
X012492Y017098D01*
X012498Y017174D01*
X012500Y017250D01*
D12*
X009200Y015650D02*
X009200Y014850D01*
X009198Y014833D01*
X009194Y014816D01*
X009187Y014800D01*
X009177Y014786D01*
X009164Y014773D01*
X009150Y014763D01*
X009134Y014756D01*
X009117Y014752D01*
X009100Y014750D01*
X006400Y014750D01*
X006383Y014752D01*
X006366Y014756D01*
X006350Y014763D01*
X006336Y014773D01*
X006323Y014786D01*
X006313Y014800D01*
X006306Y014816D01*
X006302Y014833D01*
X006300Y014850D01*
X006300Y015650D01*
X006302Y015667D01*
X006306Y015684D01*
X006313Y015700D01*
X006323Y015714D01*
X006336Y015727D01*
X006350Y015737D01*
X006366Y015744D01*
X006383Y015748D01*
X006400Y015750D01*
X009100Y015750D01*
X009117Y015748D01*
X009134Y015744D01*
X009150Y015737D01*
X009164Y015727D01*
X009177Y015714D01*
X009187Y015700D01*
X009194Y015684D01*
X009198Y015667D01*
X009200Y015650D01*
X008350Y015250D02*
X007880Y015250D01*
X007630Y015250D02*
X007150Y015250D01*
X006250Y013500D02*
X018250Y013500D01*
X018250Y008500D01*
X006250Y008500D01*
X006250Y010600D01*
X006289Y010602D01*
X006328Y010608D01*
X006366Y010617D01*
X006403Y010630D01*
X006439Y010647D01*
X006472Y010667D01*
X006504Y010691D01*
X006533Y010717D01*
X006559Y010746D01*
X006583Y010778D01*
X006603Y010811D01*
X006620Y010847D01*
X006633Y010884D01*
X006642Y010922D01*
X006648Y010961D01*
X006650Y011000D01*
X006648Y011039D01*
X006642Y011078D01*
X006633Y011116D01*
X006620Y011153D01*
X006603Y011189D01*
X006583Y011222D01*
X006559Y011254D01*
X006533Y011283D01*
X006504Y011309D01*
X006472Y011333D01*
X006439Y011353D01*
X006403Y011370D01*
X006366Y011383D01*
X006328Y011392D01*
X006289Y011398D01*
X006250Y011400D01*
X006250Y013500D01*
X004250Y012250D02*
X004250Y010150D01*
X004289Y010148D01*
X004328Y010142D01*
X004366Y010133D01*
X004403Y010120D01*
X004439Y010103D01*
X004472Y010083D01*
X004504Y010059D01*
X004533Y010033D01*
X004559Y010004D01*
X004583Y009972D01*
X004603Y009939D01*
X004620Y009903D01*
X004633Y009866D01*
X004642Y009828D01*
X004648Y009789D01*
X004650Y009750D01*
X004648Y009711D01*
X004642Y009672D01*
X004633Y009634D01*
X004620Y009597D01*
X004603Y009561D01*
X004583Y009528D01*
X004559Y009496D01*
X004533Y009467D01*
X004504Y009441D01*
X004472Y009417D01*
X004439Y009397D01*
X004403Y009380D01*
X004366Y009367D01*
X004328Y009358D01*
X004289Y009352D01*
X004250Y009350D01*
X004250Y007250D01*
X018250Y007250D01*
X018250Y012250D01*
X004250Y012250D01*
D13*
X007630Y015000D02*
X007630Y015250D01*
X007630Y015500D01*
X007880Y015500D02*
X007880Y015250D01*
X007880Y015000D01*
M02*
