%
M48
M72
T01C0.0130
T02C0.0320
T03C0.0350
T04C0.1420
%
T01
X6550Y5450
X6550Y5800
X7150Y4650
X8050Y5050
X8300Y4650
X8550Y4900
X9550Y5400
X10700Y5300
X11200Y5550
X10950Y4800
X12150Y4650
X12850Y4900
X13200Y4900
X13750Y5500
X13450Y5800
X12550Y5550
X12000Y6100
X11400Y7200
X10250Y8300
X8500Y11350
X9500Y11800
X9500Y12150
X13800Y11600
X16200Y5900
X17200Y5850
X18750Y5050
X15550Y4900
X15000Y4800
X14300Y5150
X6500Y7450
X6150Y8250
T02
X6750Y8000
X7750Y8000
X8750Y8000
X9750Y8000
X10750Y8000
X11750Y8000
X12750Y8000
X13750Y8000
X14750Y8000
X15750Y8000
X16750Y8000
X17750Y8000
X17750Y6750
X16750Y6750
X15750Y6750
X14750Y6750
X13750Y6750
X12750Y6750
X11750Y6750
X10750Y6750
X9750Y6750
X8750Y6750
X7750Y6750
X6750Y6750
X5750Y6750
X4750Y6750
X4750Y12750
X5750Y12750
X6750Y12750
X7750Y12750
X8750Y12750
X9750Y12750
X10750Y12750
X11750Y12750
X12750Y12750
X13750Y12750
X14750Y12750
X15750Y12750
X16750Y12750
X17750Y12750
X17750Y14000
X16750Y14000
X15750Y14000
X14750Y14000
X13750Y14000
X12750Y14000
X11750Y14000
X10750Y14000
X9750Y14000
X8750Y14000
X7750Y14000
X6750Y14000
X6750Y15250
X8750Y15250
T03
X2500Y5500
X3500Y5500
X2000Y11750
X2000Y12750
X2000Y13750
X2000Y15000
X2000Y16000
X2000Y17000
T04
X2075Y7750
X19925Y7750
M30
