G75*
G70*
%OFA0B0*%
%FSLAX24Y24*%
%IPPOS*%
%LPD*%
%AMOC8*
5,1,8,0,0,1.08239X$1,22.5*
%
%ADD10C,0.0060*%
%ADD11R,0.0560X0.3810*%
%ADD12R,0.0560X0.2810*%
%ADD13R,2.1000X0.4000*%
%ADD14C,0.2310*%
%ADD15R,0.0760X0.0760*%
%ADD16C,0.0760*%
%ADD17OC8,0.0540*%
%ADD18C,0.0330*%
D10*
X013888Y015316D02*
X013995Y015316D01*
X014102Y015423D01*
X014102Y015957D01*
X013675Y015957D02*
X013675Y015637D01*
X013781Y015530D01*
X014102Y015530D01*
X013457Y015637D02*
X013457Y015850D01*
X013350Y015957D01*
X013030Y015957D01*
X013030Y016171D02*
X013030Y015530D01*
X013350Y015530D01*
X013457Y015637D01*
X013350Y016580D02*
X013137Y016580D01*
X013030Y016687D01*
X013030Y017114D01*
X013137Y017221D01*
X013350Y017221D01*
X013457Y017114D01*
X013675Y016900D02*
X013675Y016687D01*
X013781Y016580D01*
X013995Y016580D01*
X014102Y016687D01*
X014102Y016900D01*
X013995Y017007D01*
X013781Y017007D01*
X013675Y016900D01*
X013457Y016687D02*
X013350Y016580D01*
X014319Y016687D02*
X014426Y016580D01*
X014639Y016580D01*
X014746Y016687D01*
X014964Y016687D02*
X015070Y016580D01*
X015284Y016580D01*
X015391Y016687D01*
X015391Y016900D01*
X015284Y017007D01*
X015070Y017007D01*
X014964Y016900D01*
X014964Y016687D01*
X014964Y016171D02*
X015391Y015530D01*
X015391Y016171D01*
X015608Y016171D02*
X016035Y016171D01*
X015822Y015850D02*
X015608Y015850D01*
X015608Y015530D02*
X015608Y016171D01*
X015608Y016580D02*
X016035Y016580D01*
X016253Y016580D02*
X016253Y017221D01*
X016573Y017221D01*
X016680Y017114D01*
X016680Y016900D01*
X016573Y016794D01*
X016253Y016794D01*
X015822Y016900D02*
X015608Y016900D01*
X015608Y016580D02*
X015608Y017221D01*
X016035Y017221D01*
X016897Y017221D02*
X016897Y016580D01*
X016897Y016794D02*
X017218Y016794D01*
X017324Y016900D01*
X017324Y017114D01*
X017218Y017221D01*
X016897Y017221D01*
X017111Y016794D02*
X017324Y016580D01*
X017542Y016687D02*
X017649Y016580D01*
X017862Y016580D01*
X017969Y016687D01*
X017969Y017114D01*
X017862Y017221D01*
X017649Y017221D01*
X017542Y017114D01*
X017542Y016687D01*
X017324Y016171D02*
X016897Y015530D01*
X016680Y015637D02*
X016680Y015744D01*
X016573Y015850D01*
X016253Y015850D01*
X016253Y015637D01*
X016360Y015530D01*
X016573Y015530D01*
X016680Y015637D01*
X016466Y016064D02*
X016253Y015850D01*
X016466Y016064D02*
X016680Y016171D01*
X016897Y016171D02*
X017324Y015530D01*
X018186Y016580D02*
X018186Y017221D01*
X018400Y017007D01*
X018613Y017221D01*
X018613Y016580D01*
X018831Y016580D02*
X019151Y016580D01*
X019258Y016687D01*
X019258Y016900D01*
X019151Y017007D01*
X018831Y017007D01*
X018831Y016366D01*
X019475Y016687D02*
X019582Y016794D01*
X019903Y016794D01*
X019903Y016900D02*
X019796Y017007D01*
X019582Y017007D01*
X019475Y016687D02*
X019582Y016580D01*
X019903Y016580D01*
X019903Y016900D01*
X020120Y016794D02*
X020440Y017007D01*
X020120Y016794D02*
X020440Y016580D01*
X020120Y016580D02*
X020120Y017221D01*
X014964Y016171D02*
X014964Y015530D01*
X014319Y016687D02*
X014319Y017114D01*
X014426Y017221D01*
X014639Y017221D01*
X014746Y017114D01*
D11*
X001500Y002550D03*
X002500Y002550D03*
X003500Y002550D03*
X004500Y002550D03*
X006500Y002550D03*
X007500Y002550D03*
X008500Y002550D03*
X009500Y002550D03*
X010500Y002550D03*
X011500Y002550D03*
X012500Y002550D03*
X013500Y002550D03*
X014500Y002550D03*
X015500Y002550D03*
X016500Y002550D03*
X017500Y002550D03*
X018500Y002550D03*
X019500Y002550D03*
X020500Y002550D03*
D12*
X005500Y003000D03*
D13*
X011000Y002500D03*
D14*
X002075Y007750D03*
X019925Y007750D03*
D15*
X006750Y008000D03*
X004750Y006750D03*
X002500Y005500D03*
X002000Y013750D03*
X002000Y017000D03*
D16*
X002000Y016000D03*
X002000Y015000D03*
X002000Y012750D03*
X002000Y011750D03*
X004750Y012750D03*
X005750Y012750D03*
X006750Y012750D03*
X007750Y012750D03*
X008750Y012750D03*
X009750Y012750D03*
X010750Y012750D03*
X011750Y012750D03*
X012750Y012750D03*
X013750Y012750D03*
X014750Y012750D03*
X015750Y012750D03*
X016750Y012750D03*
X017750Y012750D03*
X017750Y014000D03*
X016750Y014000D03*
X015750Y014000D03*
X014750Y014000D03*
X013750Y014000D03*
X012750Y014000D03*
X011750Y014000D03*
X010750Y014000D03*
X009750Y014000D03*
X008750Y014000D03*
X007750Y014000D03*
X006750Y014000D03*
X007750Y008000D03*
X008750Y008000D03*
X009750Y008000D03*
X010750Y008000D03*
X011750Y008000D03*
X012750Y008000D03*
X013750Y008000D03*
X014750Y008000D03*
X015750Y008000D03*
X016750Y008000D03*
X017750Y008000D03*
X017750Y006750D03*
X016750Y006750D03*
X015750Y006750D03*
X014750Y006750D03*
X013750Y006750D03*
X012750Y006750D03*
X011750Y006750D03*
X010750Y006750D03*
X009750Y006750D03*
X008750Y006750D03*
X007750Y006750D03*
X006750Y006750D03*
X005750Y006750D03*
X003500Y005500D03*
D17*
X006750Y015250D03*
X008750Y015250D03*
D18*
X009500Y012150D03*
X009500Y011800D03*
X008500Y011350D03*
X010250Y008300D03*
X011400Y007200D03*
X012000Y006100D03*
X012550Y005550D03*
X012850Y004900D03*
X013200Y004900D03*
X013750Y005500D03*
X013450Y005800D03*
X014300Y005150D03*
X015000Y004800D03*
X015550Y004900D03*
X016200Y005900D03*
X017200Y005850D03*
X018750Y005050D03*
X012150Y004650D03*
X011200Y005550D03*
X010700Y005300D03*
X010950Y004800D03*
X009550Y005400D03*
X008550Y004900D03*
X008300Y004650D03*
X008050Y005050D03*
X007150Y004650D03*
X006550Y005450D03*
X006550Y005800D03*
X006500Y007450D03*
X006150Y008250D03*
X013800Y011600D03*
M02*
