%
M48
M72
T01C0.0130
T02C0.0320
T03C0.0350
T04C0.1420
%
T01
X5900Y4650
X6850Y4650
X5800Y5800
X7950Y6350
X8700Y5550
X8950Y4750
X10500Y4800
X11900Y5500
X12150Y5000
X13150Y4650
X14050Y4750
X14500Y5050
X13800Y5750
X13300Y6200
X13050Y6450
X13000Y5950
X11250Y6350
X14150Y8450
X14500Y9450
X11400Y11650
X11100Y10600
X10250Y10450
X10250Y10100
X7550Y8700
X7100Y8950
T02
X7500Y8000
X6500Y8000
X6500Y7000
X7500Y7000
X8500Y7000
X9500Y7000
X9500Y8000
X8500Y8000
X10500Y8000
X10500Y7000
X11500Y7000
X12500Y7000
X12500Y8000
X11500Y8000
X13500Y8000
X13500Y7000
X14500Y7000
X15500Y7000
X15500Y8000
X14500Y8000
X16500Y8000
X17500Y8000
X17500Y7000
X16500Y7000
X16500Y13000
X17500Y13000
X17500Y14000
X16500Y14000
X15500Y14000
X14500Y14000
X14500Y13000
X15500Y13000
X13500Y13000
X13500Y14000
X12500Y14000
X11500Y14000
X11500Y13000
X12500Y13000
X10500Y13000
X10500Y14000
X9500Y14000
X8500Y14000
X8500Y13000
X9500Y13000
X7500Y13000
X6500Y13000
X6500Y14000
X7500Y14000
X6500Y15500
X8500Y15500
X5500Y13000
X4500Y13000
X4500Y7000
X5500Y7000
T03
X3000Y12000
X2000Y12000
T04
X2075Y7750
X19925Y7750
M30
